HIERARCHY
ROOT Hips
{
    OFFSET 0.00000 0.00000 0.00000
    CHANNELS 6 Xposition Yposition Zposition Zrotation Yrotation Xrotation
    JOINT LHipJoint
    {
        OFFSET 0.00000 0.00000 0.00000
        CHANNELS 3 Zrotation Yrotation Xrotation
        JOINT LeftUpLeg
        {
            OFFSET 3.03018 0.00000 0.00000
            CHANNELS 3 Zrotation Yrotation Xrotation
            JOINT LeftLeg
            {
                OFFSET 0.00000 0.00000 -10.16532
                CHANNELS 3 Zrotation Yrotation Xrotation
                JOINT LeftFoot
                {
                    OFFSET 0.00000 0.00000 -7.82209
                    CHANNELS 3 Zrotation Yrotation Xrotation
                    JOINT LeftToeBase
                    {
                        OFFSET 0.00000 -0.10000 0.00000
                        CHANNELS 3 Zrotation Yrotation Xrotation
                        End Site
                        {
                            OFFSET 0.00000 0.00000 0.10000
                        }
                    }
                }
            }
        }
    }
    JOINT RHipJoint
    {
        OFFSET 0.00000 0.00000 0.00000
        CHANNELS 3 Zrotation Yrotation Xrotation
        JOINT RightUpLeg
        {
            OFFSET -3.03018 0.00000 0.00000
            CHANNELS 3 Zrotation Yrotation Xrotation
            JOINT RightLeg
            {
                OFFSET 0.00000 0.00000 -10.16532
                CHANNELS 3 Zrotation Yrotation Xrotation
                JOINT RightFoot
                {
                    OFFSET 0.00000 0.00000 -7.82209
                    CHANNELS 3 Zrotation Yrotation Xrotation
                    JOINT RightToeBase
                    {
                        OFFSET 0.00000 -0.10000 0.00000
                        CHANNELS 3 Zrotation Yrotation Xrotation
                        End Site
                        {
                            OFFSET 0.00000 0.00000 0.10000
                        }
                    }
                }
            }
        }
    }
    JOINT LowerBack
    {
        OFFSET 0.00000 0.00000 0.00000
        CHANNELS 3 Zrotation Yrotation Xrotation
        JOINT Spine
        {
            OFFSET 0.00000 0.00000 5.46341
            CHANNELS 3 Zrotation Yrotation Xrotation
            JOINT Spine1
            {
                OFFSET 0.00000 0.00000 6.40534
                CHANNELS 3 Zrotation Yrotation Xrotation
                JOINT Neck
                {
                    OFFSET 0.00000 0.00000 0.00000
                    CHANNELS 3 Zrotation Yrotation Xrotation
                    JOINT Neck1
                    {
                        OFFSET 0.00000 0.00000 2.57609
                        CHANNELS 3 Zrotation Yrotation Xrotation
                        JOINT Head
                        {
                            OFFSET 0.00000 0.00000 2.87447
                            CHANNELS 3 Zrotation Yrotation Xrotation
                            End Site
                            {
                                OFFSET 0.00000 0.09806 -0.01961
                            }
                        }
                    }
                }
                JOINT LeftShoulder
                {
                    OFFSET 0.00000 0.00000 0.00000
                    CHANNELS 3 Zrotation Yrotation Xrotation
                    JOINT LeftArm
                    {
                        OFFSET 3.48377 0.00000 0.00000
                        CHANNELS 3 Zrotation Yrotation Xrotation
                        JOINT LeftForeArm
                        {
                            OFFSET 6.44724 0.00000 0.00000
                            CHANNELS 3 Zrotation Yrotation Xrotation
                            JOINT LeftHand
                            {
                                OFFSET 6.03404 0.00000 0.00000
                                CHANNELS 3 Zrotation Yrotation Xrotation
                                JOINT LeftFingerBase
                                {
                                    OFFSET 0.00000 0.00000 0.00000
                                    CHANNELS 3 Zrotation Yrotation Xrotation
                                    JOINT LeftHandIndex1
                                    {
                                        OFFSET 0.10000 0.00000 0.00000
                                        CHANNELS 3 Zrotation Yrotation Xrotation
                                        End Site
                                        {
                                            OFFSET 0.10000 0.00000 0.00000
                                        }
                                    }
                                }
                                JOINT LThumb
                                {
                                    OFFSET 0.10000 0.00000 0.00000
                                    CHANNELS 3 Zrotation Yrotation Xrotation
                                    End Site
                                    {
                                        OFFSET 0.07071 0.00000 0.07071
                                    }
                                }
                            }
                        }
                    }
                }
                JOINT RightShoulder
                {
                    OFFSET 0.00000 0.00000 0.00000
                    CHANNELS 3 Zrotation Yrotation Xrotation
                    JOINT RightArm
                    {
                        OFFSET -3.48377 0.00000 0.00000
                        CHANNELS 3 Zrotation Yrotation Xrotation
                        JOINT RightForeArm
                        {
                            OFFSET -6.44724 0.00000 0.00000
                            CHANNELS 3 Zrotation Yrotation Xrotation
                            JOINT RightHand
                            {
                                OFFSET -6.03404 0.00000 0.00000
                                CHANNELS 3 Zrotation Yrotation Xrotation
                                JOINT RightFingerBase
                                {
                                    OFFSET 0.00000 0.00000 0.00000
                                    CHANNELS 3 Zrotation Yrotation Xrotation
                                    JOINT RightHandIndex1
                                    {
                                        OFFSET -0.10000 0.00000 0.00000
                                        CHANNELS 3 Zrotation Yrotation Xrotation
                                        End Site
                                        {
                                            OFFSET -0.10000 0.00000 0.00000
                                        }
                                    }
                                }
                                JOINT RThumb
                                {
                                    OFFSET -0.10000 0.00000 0.00000
                                    CHANNELS 3 Zrotation Yrotation Xrotation
                                    End Site
                                    {
                                        OFFSET -0.07071 0.00000 0.07071
                                    }
                                }
                            }
                        }
                    }
                }
            }
        }
    }
}
MOTION
Frames: 7
Frame Time: 0.04
0.0 0.0 0 -0.8836890766694285 2.0171076588415238 -78.15120897832432 0.0 -9.93923337957349e-17 0.0 -0.5692901135975761 2.112634517014801 -5.950363081660249 5.050025218466038 -1.162487967120136 49.03315442547001 0.0 -3.2302508483613845e-16 0.0 0.0 -3.2302508483613845e-16 0.0 0.0 -9.93923337957349e-17 0.0 1.2528395750461008 -6.153820633123658 -24.3671405381202 -2.708401779441876 0.3811045852925157 45.48151176671277 0.0 3.975693351829396e-16 0.0 0.0 3.975693351829396e-16 0.0 0.0 -9.93923337957349e-17 0.0 -0.29303778553933507 0.5353825556233764 -4.275060524472258 -7.236728312547961 9.731093489384773e-16 2.7892524659232904e-15 0.0 3.975693351829396e-16 0.0 -2.3216557568205407 -5.754810058431405 7.977089712910012 6.620859447075238e-32 1.1927080055488188e-15 6.3611093629270335e-15 0.0 3.975693351829396e-16 0.0 24.538802364410152 60.330200678036285 57.521929907342845 -97.04730573886778 -1.5851404977442607e-14 -1.2771696385348089e-15 0.0 0.0 0.0 0.0 0.0 0.0 0.0 0.0 0.0 0.0 0.0 0.0 0.0 3.975693351829396e-16 0.0 -46.863846641220086 -58.58403966641662 63.164385500152086 96.47483429631524 -4.744822217856508e-15 4.236788223177224e-15 0.0 0.0 0.0 0.0 0.0 0.0 0.0 0.0 0.0 0.0 0.0 0.0
0.0 0.0 0 -0.8942131197282448 2.6125477219503033 -78.36393231812302 1.987846675914698e-16 4.969616689786746e-16 -6.361109362927035e-15 -0.4878126573633235 1.7899303955658277 -5.6270919992637385 4.204909566996049 -1.7380632775084217 51.98529666465778 1.9878466759146977e-16 1.490885006936023e-16 6.361109362927033e-15 1.9878466759146977e-16 1.490885006936023e-16 6.361109362927033e-15 1.987846675914698e-16 4.969616689786746e-16 -6.361109362927035e-15 1.49320832443787 -6.474461286272612 -24.531364032486636 -2.341837386632881 1.0351546150474484 42.32645259070312 0.0 0.0 0.0 0.0 0.0 0.0 1.987846675914698e-16 4.969616689786746e-16 -6.361109362927035e-15 -0.2462441412705647 0.3510213825877949 -3.9689399896646096 -7.559470612560256 1.5129092634108994e-15 3.4962417664702697e-14 7.95138670365879e-16 3.9756933518293945e-16 6.361109362927032e-15 -1.9053632054719238 -5.863838461622557 7.616583072516752 3.975693351829396e-16 1.987846675914698e-16 6.896728590703373e-34 7.95138670365879e-16 3.9756933518293945e-16 6.361109362927032e-15 25.57636482642252 60.289690349784195 59.555667500233675 -95.83057603538221 -1.3705251974496568e-14 -3.8058678315395836e-15 0.0 0.0 0.0 0.0 0.0 0.0 0.0 0.0 0.0 0.0 0.0 0.0 7.95138670365879e-16 3.9756933518293945e-16 6.361109362927032e-15 -46.97889874549185 -58.59225754740463 63.40738264184437 95.65718265545073 4.270536080571471e-15 4.714470692628732e-15 -3.1805546814635168e-15 0.0 0.0 -3.1805546814635168e-15 0.0 0.0 -3.1805546814635168e-15 0.0 0.0 -3.1805546814635168e-15 0.0 0.0
0.0 0.0 0 -0.9842819216654651 2.822186050228712 -78.52744392916117 1.987846675914698e-16 9.93923337957349e-17 1.7241821476758432e-34 -0.44346495840067346 1.3946082984557884 -5.98358558131973 3.552058399802537 -1.8383674379446573 55.3294921507957 1.987846675914698e-16 -1.987846675914698e-16 -3.4483642953516864e-34 1.987846675914698e-16 -1.987846675914698e-16 -3.4483642953516864e-34 1.987846675914698e-16 9.93923337957349e-17 1.7241821476758432e-34 1.7757388047675573 -6.7945031996194185 -24.391482796689385 -2.2838077283630307 1.5795024240917541 39.86341357641275 -7.951386703658791e-16 -3.9756933518293955e-16 2.758691436281349e-33 -7.951386703658791e-16 -3.9756933518293955e-16 2.758691436281349e-33 1.987846675914698e-16 9.93923337957349e-17 1.7241821476758432e-34 -0.1965095852961715 0.1274048899491666 -3.750162663880597 -7.504877995300724 1.0162231143504728e-15 3.344850992583777e-15 7.95138670365879e-16 3.9756933518293945e-16 6.361109362927032e-15 -1.1532997255935231 -6.0783670026365675 6.879313646243749 0.0 2.981770013872047e-16 0.0 7.95138670365879e-16 3.9756933518293945e-16 6.361109362927032e-15 28.810499103763508 60.285044608557996 62.563144749766735 -94.8253070709096 1.0761619689927595e-14 -1.1708362126866849e-14 0.0 0.0 0.0 0.0 0.0 0.0 0.0 0.0 0.0 0.0 0.0 0.0 7.95138670365879e-16 3.9756933518293945e-16 6.361109362927032e-15 -46.59690615990172 -58.66415497060591 63.134590104037954 95.2465749344377 -4.6991381537434365e-15 4.2874016535835205e-15 3.1805546814635168e-15 0.0 0.0 3.1805546814635168e-15 0.0 0.0 3.1805546814635168e-15 0.0 0.0 3.1805546814635168e-15 0.0 0.0
0.0 0.0 0 -0.969427071774412 2.4374104103550938 -78.78862158680606 9.93923337957349e-17 -9.93923337957349e-17 -8.620910738379216e-35 -0.4077968064505226 1.2509830515034122 -6.384293286018733 3.3042109321321003 -1.6108204698174358 57.65375580604252 0.0 3.2302508483613845e-16 0.0 0.0 3.2302508483613845e-16 0.0 9.93923337957349e-17 -9.93923337957349e-17 -8.620910738379216e-35 1.9800102197675715 -6.953099836789895 -23.674933493535736 -2.257489173401693 1.975083348073357 37.17657930538724 -2.2069531490250793e-32 -3.975693351829396e-16 6.3611093629270335e-15 -2.2069531490250793e-32 -3.975693351829396e-16 6.3611093629270335e-15 9.93923337957349e-17 -9.93923337957349e-17 -8.620910738379216e-35 -0.15047334279230148 -0.005989103576421597 -3.5590797393378972 -7.129426673141814 1.5882094435281896e-15 2.5494407835332883e-14 -7.951386703658794e-16 -3.975693351829398e-16 -6.361109362927035e-15 -0.2512365674963005 -6.0760758408252284 6.7338243385773575 -4.9696166897867474e-17 -1.490885006936024e-16 6.361109362927035e-15 -7.951386703658794e-16 -3.975693351829398e-16 -6.361109362927035e-15 31.239464907385543 60.04715279304577 64.68030902173778 -94.72856863388117 -2.5254091738407227e-15 -6.648454625969751e-15 0.0 0.0 0.0 0.0 0.0 0.0 0.0 0.0 0.0 0.0 0.0 0.0 -7.951386703658794e-16 -3.975693351829398e-16 -6.361109362927035e-15 -45.454486608423224 -58.89097870411612 62.26296336296342 95.19926773027177 -4.080265228670731e-16 8.986709020040258e-15 0.0 0.0 7.951386703658792e-16 0.0 0.0 7.951386703658792e-16 0.0 0.0 7.951386703658792e-16 0.0 0.0 7.951386703658792e-16
0.0 0.0 0 -0.9207125795831831 1.9534576441947753 -78.82372501949102 -1.1034765745125397e-32 -1.9878466759146977e-16 6.361109362927033e-15 -0.4006099818826796 1.1064728346709007 -7.461888776893168 3.1281595095482464 -1.3010014745022627 59.90569114635589 -1.987846675914698e-16 -8.199867538148129e-16 1.4224502718325707e-33 -1.987846675914698e-16 -8.199867538148129e-16 1.4224502718325707e-33 -1.1034765745125397e-32 -1.9878466759146977e-16 6.361109362927033e-15 2.1393566859181727 -6.970687405615528 -23.262250717427964 -2.4425088555111123 2.008124523426247 35.40252394864954 0.0 -3.975693351829396e-16 0.0 0.0 -3.975693351829396e-16 0.0 -1.1034765745125397e-32 -1.9878466759146977e-16 6.361109362927033e-15 -0.1095108233239819 -0.18133068282421147 -3.48678578548676 -6.549583043984906 -3.578854871680149e-16 7.049175221155167e-16 -3.975693351829396e-16 0.0 0.0 0.4723146749217477 -5.89834126684701 6.7535869805212565 -3.975693351829396e-16 -3.4787316828507215e-16 1.2069275033730902e-33 -3.975693351829396e-16 0.0 0.0 31.2917581428682 60.1282325167762 63.88339999755996 -95.52906964249529 -3.841915047816247e-15 1.3695190776362079e-14 0.0 0.0 0.0 0.0 0.0 0.0 0.0 0.0 0.0 0.0 0.0 0.0 -3.975693351829396e-16 0.0 0.0 -43.230484588650455 -59.62102697866965 60.62520413785219 94.97099778968243 -1.3676317946779613e-14 3.9085661122953685e-15 0.0 0.0 0.0 0.0 0.0 0.0 0.0 0.0 0.0 0.0 0.0 0.0
0.0 0.0 0 -0.9765894254011561 1.6336155642264987 -79.1076616167649 2.4848083448933725e-17 9.93923337957349e-17 2.155227684594804e-35 -0.3314801570331098 0.6772676758353268 -8.290696873333697 3.015577299967125 -0.7196833044320693 62.01649435324594 0.0 5.590818776010089e-17 0.0 0.0 5.590818776010089e-17 0.0 2.4848083448933725e-17 9.93923337957349e-17 2.155227684594804e-35 2.2155877688701175 -7.117516153429847 -22.01813652793223 -2.7713207316535815 1.7713601680082074 33.57306513609453 -3.975693351829396e-16 -3.975693351829395e-16 6.361109362927033e-15 -3.975693351829396e-16 -3.975693351829395e-16 6.361109362927033e-15 2.4848083448933725e-17 9.93923337957349e-17 2.155227684594804e-35 -0.05525795018492353 -0.6275105296301227 -3.187460177701069 -6.184909268910749 -3.003197496490111e-17 6.813705219264521e-15 -3.975693351829396e-16 0.0 0.0 1.534959331312948 -5.385768730270409 7.070403882986281 -4.969616689786746e-16 9.939233379573492e-17 -4.310455369189608e-34 -3.975693351829396e-16 0.0 0.0 28.874522964628742 60.76594126674146 61.156637476980684 -95.41217433455762 -8.98593541212948e-15 4.2472276048426467e-16 0.0 0.0 0.0 0.0 0.0 0.0 0.0 0.0 0.0 0.0 0.0 0.0 -3.975693351829396e-16 0.0 0.0 -40.93265644820824 -59.936405703477014 58.83707748086618 94.99394317659576 8.987425693391447e-15 3.9192353846538103e-16 3.1805546814635164e-15 -6.361109362927033e-15 -1.7655625192200634e-31 3.1805546814635164e-15 -6.361109362927033e-15 -1.7655625192200634e-31 3.1805546814635164e-15 -6.361109362927033e-15 -1.7655625192200634e-31 3.1805546814635164e-15 -6.361109362927033e-15 -1.7655625192200634e-31
0.0 0.0 0 -0.9309363128712089 1.2673339787082782 -79.31233454506892 1.2424041724466862e-17 -9.93923337957349e-17 -1.077613842297402e-35 -0.22119610559612238 0.2633809552547638 -9.287089635703978 2.798449553611041 -0.08839605105304664 65.09744770866271 -9.93923337957349e-17 -1.3666445896913547e-16 1.185375226527142e-34 -9.93923337957349e-17 -1.3666445896913547e-16 1.185375226527142e-34 1.2424041724466862e-17 -9.93923337957349e-17 -1.077613842297402e-35 2.2644989961013344 -7.282522899420345 -20.208565352477027 -3.2143983445984765 1.490960114729503 32.14400752771409 0.0 3.975693351829396e-16 0.0 0.0 3.975693351829396e-16 0.0 1.2424041724466862e-17 -9.93923337957349e-17 -1.077613842297402e-35 -0.01247380888774273 -0.8776018712742097 -3.1133259003196336 -6.102325438195029 8.464675653649311e-17 1.5880229680494944e-15 3.975693351829396e-16 0.0 0.0 2.7005617524611036 -4.891743826289285 7.6927266367780405 0.0 1.987846675914698e-16 0.0 3.975693351829396e-16 0.0 0.0 25.416110212053287 61.0996944340755 58.728930079556974 -94.56379315838537 2.515846505479894e-15 6.6520791313514954e-15 0.0 0.0 0.0 0.0 0.0 0.0 0.0 0.0 0.0 0.0 0.0 0.0 3.975693351829396e-16 0.0 0.0 -38.66779203174896 -59.78891193918636 57.28893337653261 95.7491415253813 4.717896247511662e-15 -4.266751378371295e-15 0.0 0.0 0.0 0.0 0.0 0.0 0.0 0.0 0.0 0.0 0.0 0.0
